# Blender v3.0.1 OBJ File: 'Atomav1.blend'
# www.blender.org
mtllib Shape4Decv1.mtl
o Curve.025_Curve.005
v 0.012166 -0.059229 0.199115
v 0.016980 -0.059125 0.199116
v 0.019479 -0.049888 0.199249
v 0.023012 -0.022210 0.199648
v 0.028477 -0.017298 0.199718
v 0.049304 -0.011862 0.199797
v 0.066342 -0.009237 0.199834
v 0.069530 -0.004751 0.199899
v 0.067695 -0.000932 0.199954
v 0.066598 -0.000532 0.199960
v 0.047215 0.007204 0.200071
v 0.030620 0.011805 0.200137
v 0.038826 0.036395 0.200491
v 0.040654 0.042093 0.200573
v 0.041538 0.048282 0.200662
v 0.041418 0.048282 0.200662
v 0.041285 0.048282 0.200662
v 0.041118 0.048282 0.200662
v 0.040929 0.048282 0.200662
v 0.040729 0.048282 0.200662
v 0.040528 0.048282 0.200662
v 0.040339 0.048282 0.200662
v 0.040172 0.048282 0.200662
v 0.040039 0.048282 0.200662
v 0.039951 0.048282 0.200662
v 0.038184 0.047834 0.200656
v 0.032346 0.043294 0.200591
v 0.020008 0.030519 0.200407
v 0.019585 0.031439 0.200420
v 0.009890 0.018471 0.200233
v -0.000019 0.026270 0.200346
v -0.012802 0.034250 0.200460
v -0.021811 0.039277 0.200533
v -0.026309 0.033882 0.200455
v -0.020662 0.020123 0.200257
v -0.019287 0.014917 0.200182
v -0.013049 0.007656 0.200078
v -0.010927 0.003402 0.200016
v -0.009777 0.001917 0.199995
v -0.025985 -0.002083 0.199937
v -0.044156 -0.010154 0.199821
v -0.044375 -0.015204 0.199749
v -0.037585 -0.019864 0.199681
v -0.027711 -0.023657 0.199627
v -0.015444 -0.023495 0.199629
v -0.003290 -0.025333 0.199603
v 0.001280 -0.032155 0.199504
v 0.008103 -0.048650 0.199267
v 0.009397 -0.050707 0.199237
v 0.010660 -0.053760 0.199193
v 0.006199 -0.024757 0.199611
v 0.001788 -0.018581 0.199700
v -0.010145 -0.016541 0.199729
v -0.026372 -0.015664 0.199742
v -0.033831 -0.012575 0.199786
v -0.025368 -0.009703 0.199828
v -0.009685 -0.006053 0.199880
v -0.002901 -0.004751 0.199899
v -0.001959 0.002967 0.200010
v -0.003908 0.006669 0.200063
v -0.014303 0.021379 0.200275
v -0.016668 0.027077 0.200357
v -0.004638 0.019980 0.200255
v 0.009222 0.008965 0.200096
v 0.012669 0.013021 0.200155
v 0.028185 0.031335 0.200419
v 0.033538 0.035664 0.200481
v 0.032562 0.031342 0.200419
v 0.030858 0.026387 0.200347
v 0.024283 0.009610 0.200106
v 0.023908 0.005591 0.200048
v 0.056837 -0.003633 0.199915
v 0.034820 -0.008792 0.199841
v 0.021064 -0.014391 0.199760
v 0.018085 -0.018382 0.199703
v 0.017410 -0.019157 0.199692
v 0.015471 -0.046983 0.199291
v 0.012166 -0.059497 0.217696
v 0.016980 -0.059392 0.217698
v 0.019479 -0.050155 0.217831
v 0.023012 -0.022477 0.218229
v 0.028477 -0.017565 0.218300
v 0.049304 -0.012129 0.218378
v 0.066342 -0.009505 0.218416
v 0.069530 -0.005019 0.218480
v 0.067695 -0.001200 0.218535
v 0.066598 -0.000799 0.218541
v 0.047215 0.006937 0.218652
v 0.030616 0.011540 0.218719
v 0.038834 0.036209 0.219074
v 0.040654 0.041826 0.219155
v 0.041538 0.048015 0.219244
v 0.041418 0.048015 0.219244
v 0.041285 0.048015 0.219244
v 0.041118 0.048015 0.219244
v 0.040929 0.048015 0.219244
v 0.040729 0.048015 0.219244
v 0.040528 0.048015 0.219244
v 0.040339 0.048015 0.219244
v 0.040172 0.048015 0.219244
v 0.040039 0.048015 0.219244
v 0.039951 0.048015 0.219244
v 0.038184 0.047567 0.219237
v 0.032346 0.043027 0.219172
v 0.020008 0.030251 0.218988
v 0.019585 0.031171 0.219001
v 0.009890 0.018204 0.218815
v -0.000019 0.026003 0.218927
v -0.012802 0.033983 0.219042
v -0.021811 0.039010 0.219114
v -0.026309 0.033615 0.219037
v -0.020662 0.019856 0.218838
v -0.019287 0.014649 0.218764
v -0.013049 0.007389 0.218659
v -0.010927 0.003134 0.218598
v -0.009777 0.001650 0.218576
v -0.025985 -0.002350 0.218519
v -0.044156 -0.010422 0.218403
v -0.044375 -0.015472 0.218330
v -0.037585 -0.020131 0.218263
v -0.027711 -0.023924 0.218208
v -0.015444 -0.023763 0.218211
v -0.003290 -0.025600 0.218184
v 0.001280 -0.032423 0.218086
v 0.008103 -0.048918 0.217848
v 0.009397 -0.050975 0.217819
v 0.010651 -0.054016 0.217775
v 0.006199 -0.025024 0.218192
v 0.001788 -0.018848 0.218281
v -0.010145 -0.016809 0.218311
v -0.026372 -0.015931 0.218323
v -0.033831 -0.012843 0.218368
v -0.025368 -0.009971 0.218409
v -0.009685 -0.006320 0.218462
v -0.002901 -0.005019 0.218480
v -0.001959 0.002699 0.218591
v -0.003908 0.006401 0.218645
v -0.014303 0.021112 0.218857
v -0.016668 0.026810 0.218939
v -0.004638 0.019713 0.218836
v 0.009222 0.008697 0.218678
v 0.012669 0.012754 0.218736
v 0.028185 0.031068 0.219000
v 0.033538 0.035396 0.219062
v 0.032562 0.031074 0.219000
v 0.030858 0.026120 0.218929
v 0.024283 0.009343 0.218687
v 0.023908 0.005323 0.218629
v 0.056837 -0.003900 0.218496
v 0.034820 -0.009060 0.218422
v 0.021064 -0.014659 0.218342
v 0.018085 -0.018650 0.218284
v 0.017410 -0.019424 0.218273
v 0.015471 -0.047251 0.217872
v 0.017614 -0.058826 0.217706
v 0.017549 -0.058598 0.199124
v 0.024316 -0.018778 0.218282
v 0.023865 -0.019226 0.199691
v 0.068372 -0.008394 0.199847
v 0.069302 -0.008249 0.218434
v 0.067689 -0.000755 0.199957
v 0.067450 -0.001141 0.218536
v 0.030589 0.011351 0.218716
v 0.030489 0.011364 0.200131
v 0.042262 0.048745 0.219254
v 0.042261 0.049047 0.200673
v 0.020012 0.030465 0.218991
v 0.020003 0.030740 0.200410
v 0.010212 0.018890 0.200239
v 0.010262 0.019091 0.218827
v -0.020970 0.039160 0.200531
v -0.021557 0.038919 0.219113
v -0.026522 0.034474 0.200464
v -0.026468 0.033860 0.219040
v -0.019306 0.015077 0.218770
v -0.019186 0.015198 0.200186
v -0.010026 0.002343 0.218586
v -0.010196 0.002471 0.200003
v -0.046169 -0.013798 0.218354
v -0.046124 -0.013129 0.199778
v -0.030118 -0.022932 0.199637
v -0.028648 -0.023872 0.218209
v -0.001938 -0.025529 0.218185
v -0.001691 -0.025891 0.199595
v 0.009219 -0.050467 0.199241
v 0.009450 -0.051166 0.217816
v 0.004121 -0.020305 0.199675
v 0.003905 -0.020265 0.218261
v -0.034980 -0.013548 0.199772
v -0.034914 -0.013714 0.218355
v 0.000494 -0.003300 0.218505
v -0.003596 -0.004843 0.199898
v -0.002088 0.004061 0.200026
v -0.017214 0.026765 0.218938
v -0.017241 0.027664 0.200366
v 0.009955 0.009089 0.218683
v 0.009726 0.009005 0.200097
v 0.033601 0.035046 0.219057
v 0.033599 0.035339 0.200476
v 0.023290 0.006170 0.218641
v 0.023245 0.006197 0.200057
v 0.056933 -0.003794 0.218498
v 0.056950 -0.003504 0.199917
v 0.018445 -0.015617 0.218328
v 0.018748 -0.015528 0.199744
v 0.015393 -0.047401 0.217870
v 0.015216 -0.046780 0.199294
vt 0.527559 0.000000
vt 0.011379 0.000000
vt 0.542504 0.000000
vt 0.024343 0.000000
vt 0.512590 0.000000
vt 0.500478 0.000000
vt 0.674302 0.000000
vt 0.469609 0.000000
vt 0.038317 0.000000
vt 0.574313 0.000000
vt 0.976559 0.000000
vt 0.456656 0.000000
vt 0.440672 0.000000
vt 0.590040 0.000000
vt 0.429487 0.000000
vt 0.422034 0.000000
vt 0.044539 0.000000
vt 0.969602 0.000000
vt 0.408483 0.000000
vt 0.603857 0.000000
vt 0.957992 0.000000
vt 0.619290 0.000000
vt 0.054485 0.000000
vt 0.628988 0.000000
vt 0.402617 0.000000
vt 0.645120 0.000000
vt 0.932994 0.000000
vt 0.064008 0.000000
vt 0.071805 0.000000
vt 0.662573 0.000000
vt 0.919670 0.000000
vt 0.395496 0.000000
vt 0.672940 0.000000
vt 0.680613 0.000000
vt 0.083352 0.000000
vt 0.097496 0.000000
vt 0.883858 0.000000
vt 0.385261 0.000000
vt 0.116608 0.000000
vt 0.372626 0.000000
vt 0.688639 0.000000
vt 0.361773 0.000000
vt 0.873888 0.000000
vt 0.127639 0.000000
vt 0.353641 0.000000
vt 0.847566 0.000000
vt 0.712205 0.000000
vt 0.744495 0.000000
vt 0.777451 0.000000
vt 0.761951 0.000000
vt 0.346616 0.000000
vt 0.263965 0.000000
vt 0.807318 0.000000
vt 0.174745 0.000000
vt 0.237582 0.000000
vt 0.276130 0.000000
vt 0.724570 0.000000
vt 0.326725 0.000000
vt 0.292771 0.000000
vt 0.830474 0.000000
vt 0.816231 0.000000
vt 0.220852 0.000000
vt 0.311096 0.000000
vt 0.190297 0.000000
vt 0.206990 0.000000
vt 0.195965 0.000000
vt 0.203170 0.000000
vt 0.202450 0.000000
vt 0.201729 0.000000
vt 0.199568 0.000000
vt 0.200288 0.000000
vt 0.198847 0.000000
vt 0.198127 0.000000
vt 0.197406 0.000000
vt 0.196686 0.000000
vt 0.011379 0.000000
vt 0.527520 0.000000
vt 0.542501 0.000000
vt 0.024343 0.000000
vt 0.512590 0.000000
vt 0.500478 0.000000
vt 0.674302 0.000000
vt 0.469609 0.000000
vt 0.038317 0.000000
vt 0.574313 0.000000
vt 0.976559 0.000000
vt 0.456656 0.000000
vt 0.440672 0.000000
vt 0.590040 0.000000
vt 0.429487 0.000000
vt 0.422034 0.000000
vt 0.044539 0.000000
vt 0.969602 0.000000
vt 0.408483 0.000000
vt 0.603857 0.000000
vt 0.957992 0.000000
vt 0.619290 0.000000
vt 0.054485 0.000000
vt 0.628988 0.000000
vt 0.402617 0.000000
vt 0.645120 0.000000
vt 0.932994 0.000000
vt 0.064008 0.000000
vt 0.071805 0.000000
vt 0.662573 0.000000
vt 0.919670 0.000000
vt 0.395496 0.000000
vt 0.672940 0.000000
vt 0.680613 0.000000
vt 0.083352 0.000000
vt 0.097496 0.000000
vt 0.883858 0.000000
vt 0.385261 0.000000
vt 0.116608 0.000000
vt 0.372626 0.000000
vt 0.688639 0.000000
vt 0.361773 0.000000
vt 0.873888 0.000000
vt 0.127633 0.000000
vt 0.353641 0.000000
vt 0.847566 0.000000
vt 0.712205 0.000000
vt 0.777447 0.000000
vt 0.744495 0.000000
vt 0.761951 0.000000
vt 0.346616 0.000000
vt 0.263965 0.000000
vt 0.807318 0.000000
vt 0.237582 0.000000
vt 0.276130 0.000000
vt 0.724570 0.000000
vt 0.174899 0.000000
vt 0.326725 0.000000
vt 0.292771 0.000000
vt 0.830474 0.000000
vt 0.816231 0.000000
vt 0.220852 0.000000
vt 0.311096 0.000000
vt 0.190297 0.000000
vt 0.206990 0.000000
vt 0.195965 0.000000
vt 0.203170 0.000000
vt 0.202450 0.000000
vt 0.201729 0.000000
vt 0.199568 0.000000
vt 0.200288 0.000000
vt 0.198847 0.000000
vt 0.198127 0.000000
vt 0.074725 1.000000
vt 0.022419 0.000000
vt 0.022350 1.000000
vt 0.649197 1.000000
vt 0.600218 0.000000
vt 0.599689 1.000000
vt 0.089107 1.000000
vt 0.000451 0.000000
vt 0.000326 1.000000
vt 0.602265 1.000000
vt 0.480410 0.000000
vt 0.479870 1.000000
vt 0.075324 0.000000
vt 0.649268 0.000000
vt 0.787603 1.000000
vt 0.843192 0.000000
vt 0.789278 0.000000
vt 0.090752 0.000000
vt 0.604548 0.000000
vt 0.201009 0.000000
vt 0.201009 0.000000
vt 0.197406 0.000000
vt 0.196686 0.000000
vt 0.122673 1.000000
vt 0.158498 1.000000
vt 0.124948 0.000000
vt 0.236386 1.000000
vt 0.237605 0.000000
vt 0.379616 1.000000
vt 0.441212 1.000000
vt 0.442496 0.000000
vt 0.485815 1.000000
vt 0.570318 1.000000
vt 0.486321 0.000000
vt 0.571702 0.000000
vt 0.707000 1.000000
vt 0.704787 0.000000
vt 0.747711 1.000000
vt 0.749333 0.000000
vt 0.844563 1.000000
vt 0.938638 1.000000
vt 1.000000 1.000000
vt 0.941376 0.000000
vt 0.190519 1.000000
vt 0.281096 1.000000
vt 0.189558 0.000000
vt 0.304763 1.000000
vt 0.287472 0.000000
vt 0.393604 1.000000
vt 0.397131 0.000000
vt 0.742196 1.000000
vt 0.823118 1.000000
vt 0.822243 0.000000
vt 0.925580 1.000000
vt 0.927576 0.000000
vt 0.998806 1.000000
vt 0.999082 0.000000
vt 0.158763 0.000000
vt 0.379805 0.000000
vt 1.000000 0.000000
vt 0.741529 0.000000
vn -0.0000 0.0144 -0.9999
vn 0.0000 0.0000 1.0000
vn 0.0000 0.0000 -1.0000
vn 0.0000 -0.0144 0.9999
vn 0.9874 -0.1583 -0.0054
vn -0.9346 -0.3556 -0.0090
vn 0.9223 0.3864 0.0041
vn 0.7409 -0.6716 -0.0061
vn 0.9861 -0.1647 -0.0199
vn -0.9344 -0.3561 -0.0084
vn -0.0619 -0.9970 -0.0455
vn 0.9209 0.3897 0.0099
vn 0.7393 -0.6733 -0.0107
vn 0.7990 -0.6005 -0.0317
vn 0.7209 -0.6930 -0.0040
vn 0.7436 -0.6686 0.0005
vn 0.7729 0.6344 -0.0104
vn 0.8560 -0.5170 -0.0021
vn 0.8865 0.4626 -0.0045
vn 0.8913 0.4534 0.0005
vn 0.5580 0.8297 0.0127
vn -0.7064 0.7078 0.0108
vn -0.7027 0.7115 0.0068
vn -0.1448 0.9894 -0.0048
vn -0.0571 0.9984 0.0040
vn -0.1478 0.9890 -0.0028
vn -0.9694 0.2455 -0.0068
vn -0.1218 0.9921 0.0282
vn -0.9616 0.2742 0.0107
vn -0.9656 0.2596 0.0100
vn -0.8806 -0.4737 -0.0054
vn -0.9969 0.0785 -0.0062
vn -0.3137 -0.9493 -0.0195
vn -0.9988 0.0453 0.0145
vn -0.5956 -0.8032 0.0078
vn -0.5736 -0.8191 -0.0054
vn -0.8228 -0.5682 -0.0112
vn 0.3148 -0.9489 -0.0211
vn -0.8155 -0.5788 -0.0075
vn 0.9985 0.0545 -0.0084
vn 0.6165 0.7873 0.0068
vn 0.6267 0.7792 0.0044
vn 0.6907 -0.7164 -0.0982
vn 0.9985 0.0507 0.0173
vn 0.9617 0.2709 -0.0410
vn 0.9257 -0.3780 0.0140
vn 0.6914 -0.7224 0.0043
vn 0.7096 -0.7045 0.0146
vn 0.1083 -0.9941 0.0031
vn 0.1246 -0.9922 -0.0089
vn -0.8887 -0.4584 -0.0012
vn -0.5148 -0.8571 -0.0158
vn -0.5134 -0.8581 -0.0099
vn -0.9999 -0.0104 -0.0083
vn -0.9999 -0.0071 0.0068
vn -0.7746 0.6324 -0.0038
vn -0.7770 0.6294 -0.0071
vn -0.1375 0.9899 0.0344
vn -0.1491 0.9886 0.0192
vn 0.7311 0.6818 0.0236
vn 0.5592 0.8289 0.0135
vn -0.9806 0.1958 0.0095
vn -0.8794 -0.4759 -0.0088
vn -0.2758 -0.9608 -0.0268
vn 0.3244 -0.9458 -0.0170
vn -0.8937 -0.4485 0.0015
usemtl SVGMat.007
s off
f 50/1/1 2/2/1 1/3/1
f 50/1/1 3/4/1 2/2/1
f 49/5/1 3/4/1 50/1/1
f 48/6/1 3/4/1 49/5/1
f 48/6/1 77/7/1 3/4/1
f 47/8/1 77/7/1 48/6/1
f 77/7/1 4/9/1 3/4/1
f 47/8/1 51/10/1 77/7/1
f 76/11/1 4/9/1 77/7/1
f 46/12/1 51/10/1 47/8/1
f 45/13/1 51/10/1 46/12/1
f 45/13/1 52/14/1 51/10/1
f 44/15/1 52/14/1 45/13/1
f 43/16/1 52/14/1 44/15/1
f 76/11/1 5/17/1 4/9/1
f 75/18/1 5/17/1 76/11/1
f 42/19/1 52/14/1 43/16/1
f 42/19/1 53/20/1 52/14/1
f 74/21/1 5/17/1 75/18/1
f 42/19/1 54/22/1 53/20/1
f 74/21/1 6/23/1 5/17/1
f 42/19/1 55/24/1 54/22/1
f 41/25/1 55/24/1 42/19/1
f 41/25/1 56/26/1 55/24/1
f 73/27/1 6/23/1 74/21/1
f 73/27/1 7/28/1 6/23/1
f 73/27/1 8/29/1 7/28/1
f 41/25/1 57/30/1 56/26/1
f 72/31/1 8/29/1 73/27/1
f 40/32/1 57/30/1 41/25/1
f 40/32/1 58/33/1 57/30/1
f 40/32/1 59/34/1 58/33/1
f 72/31/1 9/35/1 8/29/1
f 72/31/1 10/36/1 9/35/1
f 71/37/1 10/36/1 72/31/1
f 39/38/1 59/34/1 40/32/1
f 71/37/1 11/39/1 10/36/1
f 38/40/1 59/34/1 39/38/1
f 38/40/1 60/41/1 59/34/1
f 37/42/1 60/41/1 38/40/1
f 70/43/1 11/39/1 71/37/1
f 70/43/1 12/44/1 11/39/1
f 36/45/1 60/41/1 37/42/1
f 69/46/1 12/44/1 70/43/1
f 36/45/1 61/47/1 60/41/1
f 63/48/1 65/49/1 64/50/1
f 35/51/1 61/47/1 36/45/1
f 30/52/1 65/49/1 63/48/1
f 30/52/1 66/53/1 65/49/1
f 69/46/1 13/54/1 12/44/1
f 28/55/1 66/53/1 30/52/1
f 63/48/1 31/56/1 30/52/1
f 62/57/1 31/56/1 63/48/1
f 35/51/1 62/57/1 61/47/1
f 34/58/1 62/57/1 35/51/1
f 34/58/1 31/56/1 62/57/1
f 34/58/1 32/59/1 31/56/1
f 68/60/1 13/54/1 69/46/1
f 67/61/1 13/54/1 68/60/1
f 27/62/1 66/53/1 28/55/1
f 27/62/1 67/61/1 66/53/1
f 27/62/1 13/54/1 67/61/1
f 34/58/1 33/63/1 32/59/1
f 27/62/1 14/64/1 13/54/1
f 26/65/1 14/64/1 27/62/1
f 26/65/1 15/66/1 14/64/1
f 25/67/1 15/66/1 26/65/1
f 24/68/2 15/66/2 25/67/2
f 23/69/2 15/66/2 24/68/2
f 20/70/2 15/66/2 21/71/2
f 19/72/2 15/66/2 20/70/2
f 18/73/3 15/66/3 19/72/3
f 17/74/2 15/66/2 18/73/2
f 16/75/3 15/66/3 17/74/3
f 79/76/4 127/77/4 78/78/4
f 80/79/4 127/77/4 79/76/4
f 80/79/4 126/80/4 127/77/4
f 80/79/4 125/81/4 126/80/4
f 154/82/4 125/81/4 80/79/4
f 154/82/4 124/83/4 125/81/4
f 81/84/4 154/82/4 80/79/4
f 128/85/4 124/83/4 154/82/4
f 81/84/4 153/86/4 154/82/4
f 128/85/4 123/87/4 124/83/4
f 128/85/4 122/88/4 123/87/4
f 129/89/4 122/88/4 128/85/4
f 129/89/4 121/90/4 122/88/4
f 129/89/4 120/91/4 121/90/4
f 82/92/4 153/86/4 81/84/4
f 82/92/4 152/93/4 153/86/4
f 129/89/4 119/94/4 120/91/4
f 130/95/4 119/94/4 129/89/4
f 82/92/4 151/96/4 152/93/4
f 131/97/4 119/94/4 130/95/4
f 83/98/4 151/96/4 82/92/4
f 132/99/4 119/94/4 131/97/4
f 132/99/4 118/100/4 119/94/4
f 133/101/4 118/100/4 132/99/4
f 83/98/4 150/102/4 151/96/4
f 84/103/4 150/102/4 83/98/4
f 85/104/4 150/102/4 84/103/4
f 134/105/4 118/100/4 133/101/4
f 85/104/4 149/106/4 150/102/4
f 134/105/4 117/107/4 118/100/4
f 135/108/4 117/107/4 134/105/4
f 136/109/4 117/107/4 135/108/4
f 86/110/4 149/106/4 85/104/4
f 87/111/4 149/106/4 86/110/4
f 87/111/4 148/112/4 149/106/4
f 136/109/4 116/113/4 117/107/4
f 88/114/4 148/112/4 87/111/4
f 136/109/4 115/115/4 116/113/4
f 137/116/4 115/115/4 136/109/4
f 137/116/4 114/117/4 115/115/4
f 88/114/4 147/118/4 148/112/4
f 89/119/4 147/118/4 88/114/4
f 137/116/4 113/120/4 114/117/4
f 89/119/4 146/121/4 147/118/4
f 138/122/4 113/120/4 137/116/4
f 142/123/4 140/124/4 141/125/4
f 138/122/4 112/126/4 113/120/4
f 142/123/4 107/127/4 140/124/4
f 143/128/4 107/127/4 142/123/4
f 143/128/4 105/129/4 107/127/4
f 108/130/4 140/124/4 107/127/4
f 108/130/4 139/131/4 140/124/4
f 139/131/4 112/126/4 138/122/4
f 90/132/4 146/121/4 89/119/4
f 139/131/4 111/133/4 112/126/4
f 108/130/4 111/133/4 139/131/4
f 109/134/4 111/133/4 108/130/4
f 90/132/4 145/135/4 146/121/4
f 90/132/4 144/136/4 145/135/4
f 143/128/4 104/137/4 105/129/4
f 144/136/4 104/137/4 143/128/4
f 90/132/4 104/137/4 144/136/4
f 110/138/4 111/133/4 109/134/4
f 91/139/4 104/137/4 90/132/4
f 91/139/4 103/140/4 104/137/4
f 92/141/4 103/140/4 91/139/4
f 92/141/4 102/142/4 103/140/4
f 92/141/2 101/143/2 102/142/2
f 92/141/2 100/144/2 101/143/2
f 92/141/2 97/145/2 98/146/2
f 92/141/2 96/147/2 97/145/2
f 92/141/3 95/148/3 96/147/3
f 158/149/5 155/150/5 156/151/5
f 176/152/6 174/153/6 173/154/6
f 187/155/7 206/156/7 207/157/7
f 199/158/8 196/159/8 197/160/8
f 158/149/9 157/161/9 155/150/9
f 176/152/10 175/162/10 174/153/10
f 181/163/11 183/164/11 182/165/11
f 187/155/12 188/166/12 206/156/12
f 199/158/13 198/167/13 196/159/13
s 1
f 22/168/2 15/66/1 23/69/2
f 21/71/2 15/66/1 22/168/2
f 92/141/4 99/169/2 100/144/2
f 92/141/4 98/146/3 99/169/2
f 92/141/4 94/170/2 95/148/3
f 92/141/4 93/171/2 94/170/2
f 159/172/14 157/161/15 158/149/16
f 161/173/17 160/174/18 159/172/14
f 164/175/19 163/176/20 161/173/17
f 166/177/21 163/176/20 164/175/19
f 168/178/22 167/179/23 166/177/21
f 169/180/24 167/179/23 168/178/22
f 171/181/25 170/182/26 169/180/24
f 173/154/27 172/183/28 171/181/25
f 178/184/29 177/185/30 176/152/31
f 180/186/32 177/185/30 178/184/29
f 181/163/33 179/187/34 180/186/32
f 184/188/35 183/164/36 181/163/33
f 185/189/37 183/164/36 184/188/35
f 156/190/38 186/191/39 185/189/37
f 189/192/40 188/166/41 187/155/42
f 192/193/43 190/194/44 189/192/40
f 193/195/45 191/196/46 192/193/43
f 195/197/47 194/198/48 193/195/45
f 197/160/49 196/159/50 195/197/47
f 201/199/51 198/167/52 199/158/53
f 203/200/54 202/201/55 201/199/51
f 205/202/56 204/203/57 203/200/54
f 207/204/58 206/205/59 205/202/56
f 159/172/14 160/174/18 157/161/15
f 161/173/17 162/206/60 160/174/18
f 161/173/17 163/176/20 162/206/60
f 166/177/21 165/207/61 163/176/20
f 166/177/21 167/179/23 165/207/61
f 169/180/24 170/182/26 167/179/23
f 171/181/25 172/183/28 170/182/26
f 173/154/27 174/153/62 172/183/28
f 176/152/31 177/185/30 175/162/63
f 180/186/32 179/187/34 177/185/30
f 181/163/33 182/165/64 179/187/34
f 185/189/37 186/191/39 183/164/36
f 156/190/38 155/208/65 186/191/39
f 189/192/40 190/194/44 188/166/41
f 192/193/43 191/196/46 190/194/44
f 193/195/45 194/198/48 191/196/46
f 195/197/47 196/159/50 194/198/48
f 201/199/51 200/209/66 198/167/52
f 201/199/51 202/201/55 200/209/66
f 203/200/54 204/203/57 202/201/55
f 205/202/56 206/205/59 204/203/57
l 28 29
l 105 106
